<svg xmlns="http://www.w3.org/2000/svg" viewBox="0 0 885.03 181.25"><defs><style>.cls-1{fill:#fff;}</style></defs><title>Asset 1</title><g id="Layer_2" data-name="Layer 2"><g id="Layer_1-2" data-name="Layer 1"><path class="cls-1" d="M105.47,181.25H86.24A86.29,86.29,0,0,1,.05,95.06V44.65H191.66V95.06A86.29,86.29,0,0,1,105.47,181.25ZM28.86,73.46v21.6a57.44,57.44,0,0,0,57.38,57.38h19.23a57.44,57.44,0,0,0,57.38-57.38V73.46Z"/><rect class="cls-1" width="191.78" height="28.81"/><path class="cls-1" d="M308.83,61.3c0,9.83-6,17.56-15.85,20.18,11.92,2.23,19.13,11.14,19.13,23.2,0,15.73-13.37,25.42-34.6,25.42H233.87V38.37h42.2C296.25,38.37,308.83,47.15,308.83,61.3ZM287.6,65.1c0-6.29-4.72-10-12.58-9.83H254.58v20H275C282.88,75.32,287.6,71.52,287.6,65.1Zm3.15,37c0-6.68-6-10.75-15.73-10.62H254.58V113.2H275C284.72,113.2,290.75,109.14,290.75,102.06Z"/><path class="cls-1" d="M341.72,59.6v70.5H321.54V59.6Zm-.26-20.05c0,5.76-4.06,10.09-9.83,10.09s-9.83-4.33-9.83-10.09,4.06-10.09,9.83-10.09S341.46,33.65,341.46,39.55Z"/><path class="cls-1" d="M381,113.07a16.49,16.49,0,0,0,6.82-2l2,16.78A31.66,31.66,0,0,1,376.45,131c-11.8,0-21.76-7.86-21.76-24.24V32.86h20.05v72.61C374.74,110.71,377.36,113.07,381,113.07Z"/><path class="cls-1" d="M419.3,113.07a16.49,16.49,0,0,0,6.81-2l2,16.78A31.7,31.7,0,0,1,414.71,131c-11.79,0-21.75-7.86-21.75-24.24V32.86H413v72.61C413,110.71,415.63,113.07,419.3,113.07Z"/><path class="cls-1" d="M508.67,95.24c0,21.37-13,35.65-32.76,35.65-9.83,0-17.56-3.93-22.67-11v35.65H433.05V59.6h20.19V70c5-7.08,12.71-11,22.27-11C495.3,58.94,508.67,73.49,508.67,95.24Zm-20.44-.65c0-11.27-7.08-19.4-17.43-19.4s-17.56,8-17.56,19.4c0,11.66,7.2,19.53,17.56,19.53S488.23,106.12,488.23,94.59Z"/><path class="cls-1" d="M586.38,94.85c0,21.49-15.2,36-37.74,36s-37.88-14.55-37.88-36S526,58.94,548.64,58.94,586.38,73.23,586.38,94.85ZM531,95.11c0,11.54,7.2,19.4,17.69,19.4s17.56-7.86,17.56-19.4S559,75.72,548.64,75.72,531,83.58,531,95.11Z"/><path class="cls-1" d="M625.43,76.11c-9.83,0-16.77,7.6-16.77,18.87s6.94,19.14,16.77,19.14c7.21,0,12.84-2.76,16.38-8.26l13.89,9.43c-5.9,9.83-16.9,15.6-31.32,15.6-21.36,0-35.91-14.42-35.91-35.78,0-21.62,14.55-36.17,36.17-36.17,13.5,0,24.25,5.38,30.54,14.81l-13.63,9.83A19.43,19.43,0,0,0,625.43,76.11Z"/><path class="cls-1" d="M692.92,101.4l-9,9.57V130.1H663.69V32.86h20.18V86.33l25.82-26.6h22.93L706.81,86.86l27,43.24H710Z"/><path class="cls-1" d="M787,106l11.53,10.48c-8.13,9.57-18.87,14.42-31.71,14.42-22.41,0-37.49-14.42-37.49-35.91,0-21.23,14-35.91,36.17-36,20.45-.13,34,12.32,34.73,32.5l-48.75,12.85a17.64,17.64,0,0,0,16.78,10.87C775.08,115.16,781.63,112,787,106ZM749.53,92.23l30.93-8.39c-2.23-6.81-7.08-10-13.9-10C756.6,73.88,750.18,80.3,749.53,92.23Z"/><path class="cls-1" d="M846.37,126.17a37.11,37.11,0,0,1-18,4.85c-13,0-22.54-8.25-22.54-23.33V43.35h20V62.74h19.26v14H825.93v27.52c0,6.68,2.75,9.69,7.2,9.69a19.19,19.19,0,0,0,9-2.62Z"/><path class="cls-1" d="M871.73,28.11c7.86,0,13.3,6.19,13.3,13.75s-5.44,13.74-13.3,13.74c-7.6,0-13.24-6.09-13.24-13.74S864.08,28.11,871.73,28.11Zm0,25.28c6.4,0,11.08-5.14,11.08-11.53s-4.73-11.59-11.08-11.59-11,5.24-11,11.59S865.44,53.39,871.73,53.39Zm.41-9.27h-3v5.39h-2.92V34.25h5.54c3.62,0,5.74,1.21,5.74,4.79,0,2.46-.66,3.82-2.57,4.68l2.77,5.79h-3.07Zm-3-2.37h3c1.81,0,2.57-.75,2.57-2.56s-1-2.57-3.13-2.57h-2.41Z"/></g></g></svg>