<svg xmlns="http://www.w3.org/2000/svg" viewBox="0 0 212.47 166.36"><defs><style>.cls-1{fill:#3e5ba4;}.cls-2{fill:#fff;}</style></defs><title>conoce_atus_clientes</title><g id="Layer_2" data-name="Layer 2"><g id="Layer_1-2" data-name="Layer 1"><path class="cls-1" d="M105.14,16.43c29.3-3.64,60.94.27,84.44,11.62,42.46,20.49,17.26,84.85-6.7,111.13-15.26,16.73-37.41,23.33-58.12,25.91-29.29,3.64-61-.67-88.06-11.16C11.86,144.29-10,121.9,4.83,91.75c20.57-41.8,58-70,100.31-75.32"/><path class="cls-1" d="M175.89,15.24c-3.82-.29-7.6-1.06-8.64-1.23a50.22,50.22,0,0,1-13.54-3.87C147.82,7.36,150,2.6,155.22.85c5.89-1.95,13.46-.17,19.21,1.69,3,1,6.92,3,9,5.76,4.89,6.65-3.2,7.26-7.52,6.94"/><path class="cls-2" d="M104,127.82H67.85a4.16,4.16,0,0,1-4-5.43C68,109.62,80.53,100.7,94.36,100.7a31.07,31.07,0,0,1,17.87,5.6A4.16,4.16,0,0,0,117,99.48a39.58,39.58,0,0,0-8.29-4.42,21.15,21.15,0,0,0,6.88-14,31.27,31.27,0,0,1,39.67-3.24A4.16,4.16,0,1,0,160,71a39.66,39.66,0,0,0-8.29-4.43,21.2,21.2,0,1,0-28.55,0c-.58.22-1.15.46-1.72.71a39.25,39.25,0,0,0-7.32,4.2,21.2,21.2,0,1,0-34,23.5A40,40,0,0,0,56,119.84a12.46,12.46,0,0,0,11.87,16.29H104a4.16,4.16,0,0,0,0-8.31Zm33.45-89.77a12.89,12.89,0,1,1-12.88,12.88,12.89,12.89,0,0,1,12.88-12.88Zm-43,28.44A12.89,12.89,0,1,1,81.56,79.38,12.9,12.9,0,0,1,94.45,66.49ZM161,103.42l-20.57,28.73-.14.19a10.72,10.72,0,0,1-7.62,4l-.7,0a10.74,10.74,0,0,1-7.38-3l-13.27-12.75a4.15,4.15,0,1,1,5.75-6l13.27,12.73a2.29,2.29,0,0,0,1.78.64,2.4,2.4,0,0,0,1.63-.81l20.49-28.62a4.16,4.16,0,0,1,6.76,4.84Z"/></g></g></svg>